<svg width="550" height="389" viewBox="0 0 550 389" fill="none" xmlns="http://www.w3.org/2000/svg">
<path d="M33.2602 145.15L239.26 31.4899C260.12 19.9799 285.79 21.7099 304.92 35.9099L522.73 197.61C565.25 229.18 549.94 296.24 497.93 306.22L200.88 363.23C183.03 366.66 164.58 361.92 150.59 350.32L23.8302 245.27C-9.18981 217.9 -4.28981 165.87 33.2602 145.15Z" fill="#B9DFFD"/>
<path d="M81.3 361.33H52.17L46.26 331.03H87.21L81.3 361.33Z" fill="#FFC154"/>
<path d="M48.94 344.74L85.5 339.78L87.21 331.03H46.26L48.94 344.74Z" fill="#FF9E55"/>
<path d="M66.47 328.74C84.02 304.41 66.69 289.92 66.47 289.73C66.24 289.93 48.92 304.41 66.47 328.74C66.47 328.75 66.47 328.75 66.47 328.74C66.47 328.75 66.47 328.75 66.47 328.74Z" fill="#A7E070"/>
<path d="M65.1699 331.76C65.3899 298.47 86.0599 296.07 103.25 308.04L65.1699 331.76Z" fill="#75B75A"/>
<path d="M68 332.63C68 311.31 92.15 304.12 104.56 328.5L68 332.63Z" fill="#A7E070"/>
<path d="M67.7799 331.76C67.5599 298.47 46.89 296.07 29.7 308.04L67.7799 331.76Z" fill="#75B75A"/>
<path d="M64.9499 332.63C64.9499 311.31 40.7999 304.12 28.3899 328.5L64.9499 332.63Z" fill="#A7E070"/>
<path d="M89.6298 329.8H43.0498V336.75H89.6298V329.8Z" fill="#FFC154"/>
<path d="M237.72 167.14L217.77 152.97V68.8499C217.77 64.7199 214.42 61.3799 210.3 61.3799H54.3401C50.2101 61.3799 46.8701 64.7299 46.8701 68.8499V204.5C46.8701 208.63 50.2201 211.97 54.3401 211.97H210.3C214.43 211.97 217.77 208.62 217.77 204.5V181.3L237.72 167.14Z" fill="white"/>
<path d="M82.699 92.1518C83.9928 86.6975 80.62 81.227 75.1657 79.9332C69.7113 78.6395 64.2409 82.0122 62.9471 87.4666C61.6533 92.9209 65.0261 98.3914 70.4804 99.6851C75.9348 100.979 81.4052 97.6062 82.699 92.1518Z" fill="#A7E070"/>
<path d="M199.3 91.1299H91.0101C89.5301 91.1299 88.3301 92.3299 88.3301 93.8099C88.3301 95.2899 89.5301 96.4899 91.0101 96.4899H199.3C200.78 96.4899 201.98 95.2899 201.98 93.8099C201.98 92.3299 200.78 91.1299 199.3 91.1299Z" fill="#D6E6FD"/>
<path d="M91.0101 88.4599H140.29C141.77 88.4599 142.97 87.2599 142.97 85.7799C142.97 84.2999 141.77 83.0999 140.29 83.0999H91.0101C89.5301 83.0999 88.3301 84.2999 88.3301 85.7799C88.3301 87.2599 89.5301 88.4599 91.0101 88.4599Z" fill="#BDD3F4"/>
<path d="M181.67 120.54C181.67 126.15 186.22 130.69 191.82 130.69C197.43 130.69 201.97 126.14 201.97 120.54C201.97 114.93 197.42 110.39 191.82 110.39C186.22 110.38 181.67 114.93 181.67 120.54Z" fill="#FFC154"/>
<path d="M173.64 121.87H65.3401C63.8601 121.87 62.6602 123.07 62.6602 124.55C62.6602 126.03 63.8601 127.23 65.3401 127.23H173.63C175.11 127.23 176.31 126.03 176.31 124.55C176.32 123.07 175.12 121.87 173.64 121.87Z" fill="#D6E6FD"/>
<path d="M65.3401 119.2H114.62C116.1 119.2 117.3 118 117.3 116.52C117.3 115.04 116.1 113.84 114.62 113.84H65.3401C63.8601 113.84 62.6602 115.04 62.6602 116.52C62.6602 118 63.8601 119.2 65.3401 119.2Z" fill="#BDD3F4"/>
<path d="M72.8102 161.99C78.4158 161.99 82.9602 157.446 82.9602 151.84C82.9602 146.234 78.4158 141.69 72.8102 141.69C67.2045 141.69 62.6602 146.234 62.6602 151.84C62.6602 157.446 67.2045 161.99 72.8102 161.99Z" fill="#A7E070"/>
<path d="M199.3 153.18H91.0101C89.5301 153.18 88.3301 154.38 88.3301 155.86C88.3301 157.34 89.5301 158.54 91.0101 158.54H199.3C200.78 158.54 201.98 157.34 201.98 155.86C201.98 154.38 200.78 153.18 199.3 153.18Z" fill="#D6E6FD"/>
<path d="M91.0101 150.5H140.29C141.77 150.5 142.97 149.3 142.97 147.82C142.97 146.34 141.77 145.14 140.29 145.14H91.0101C89.5301 145.14 88.3301 146.34 88.3301 147.82C88.3301 149.3 89.5301 150.5 91.0101 150.5Z" fill="#BDD3F4"/>
<path d="M191.83 192.73C197.436 192.73 201.98 188.186 201.98 182.58C201.98 176.974 197.436 172.43 191.83 172.43C186.224 172.43 181.68 176.974 181.68 182.58C181.68 188.186 186.224 192.73 191.83 192.73Z" fill="#FFC154"/>
<path d="M173.64 183.92H65.3401C63.8601 183.92 62.6602 185.12 62.6602 186.6C62.6602 188.08 63.8601 189.28 65.3401 189.28H173.63C175.11 189.28 176.31 188.08 176.31 186.6C176.32 185.12 175.12 183.92 173.64 183.92Z" fill="#D6E6FD"/>
<path d="M65.3401 181.24H114.62C116.1 181.24 117.3 180.04 117.3 178.56C117.3 177.08 116.1 175.88 114.62 175.88H65.3401C63.8601 175.88 62.6602 177.08 62.6602 178.56C62.6602 180.04 63.8601 181.24 65.3401 181.24Z" fill="#BDD3F4"/>
<path d="M294.99 319.12L286.71 233.19C285.88 224.55 278.19 218.21 269.55 219.05C260.91 219.88 254.57 227.57 255.41 236.21L262.42 308.97L164.84 335.65C159.22 337.2 155.61 342.85 156.73 348.67C157.91 354.79 163.82 358.81 169.95 357.63L282.9 335.94L296.37 333.35L294.99 319.12Z" fill="#FFA67A"/>
<path d="M286.71 233.19C286.66 232.67 286.58 232.16 286.48 231.65L255.36 234.08C255.33 234.78 255.34 235.49 255.4 236.2L259.3 276.62L291.11 278.85L286.71 233.19Z" fill="#EF946C"/>
<path d="M299.87 267.78L249.01 272.45L245.27 231.74C244.16 219.68 253.04 209.01 265.1 207.9L272.29 207.24C284.35 206.13 295.02 215.01 296.13 227.07L299.87 267.78Z" fill="#4278C6"/>
<path d="M167.21 357.84C156.84 358.47 138.85 358.29 131.67 350.39C131.67 350.39 115.87 356.32 111.47 356.59C107.08 356.86 105.26 353.23 105.26 353.23C105.26 353.23 131.4 333.56 137.1 331.49C142.79 329.42 168.68 334.6 168.68 334.6L172.9 349.9C173.97 353.76 171.21 357.6 167.21 357.84Z" fill="#FFA67A"/>
<path d="M328.08 191.46C298.45 191.46 275.6 198.72 261.19 208.33L277.33 289.91L273.99 368.11C273.99 368.11 331.51 381.64 389.4 368.11L382.71 289.89L388.49 207.23C388.51 207.23 365.15 195.79 328.08 191.46Z" fill="#5295FE"/>
<path d="M356.3 205.37C356.3 218.23 341.32 228.66 322.83 228.66C304.35 228.66 289.36 218.23 289.36 205.37C289.36 192.51 304.34 193.62 322.83 193.62C341.31 193.61 356.3 192.5 356.3 205.37Z" fill="#FFB692"/>
<path d="M406.98 319.12L398.7 233.19C397.87 224.55 390.18 218.21 381.54 219.05C372.9 219.88 366.56 227.57 367.4 236.21L374.41 308.97L276.83 335.65C271.21 337.2 267.6 342.85 268.72 348.67C269.9 354.79 275.81 358.81 281.94 357.63L394.89 335.94L408.35 333.35L406.98 319.12Z" fill="#FFB692"/>
<path d="M399.8 244.69L368.42 246.84L371.14 275.12L403.08 278.7L399.8 244.69Z" fill="#D88D87"/>
<path d="M411.86 267.78L361 272.45L357.26 231.74C356.15 219.68 365.03 209.01 377.09 207.9L384.28 207.24C396.34 206.13 407.01 215.01 408.12 227.07L411.86 267.78Z" fill="#4278C6"/>
<path d="M279.2 357.84C268.83 358.47 250.84 358.29 243.66 350.39C243.66 350.39 227.86 356.32 223.46 356.59C219.07 356.86 217.25 353.23 217.25 353.23C217.25 353.23 243.39 333.56 249.09 331.49C254.78 329.42 280.67 334.6 280.67 334.6L284.89 349.9C285.96 353.76 283.19 357.6 279.2 357.84Z" fill="#FFB692"/>
<path d="M278.265 152.503C286.377 152.061 292.502 143.445 291.946 133.259C291.391 123.074 284.364 115.176 276.252 115.619C268.14 116.062 262.015 124.677 262.571 134.863C263.127 145.048 270.153 152.946 278.265 152.503Z" fill="#6D86AA"/>
<path d="M268.93 134.52C269.49 144.7 276.51 152.6 284.63 152.16C292.74 151.72 298.87 143.1 298.31 132.92C297.75 122.74 290.73 114.84 282.61 115.28C274.5 115.72 268.37 124.34 268.93 134.52Z" fill="white"/>
<path d="M276.56 95.0201C255.23 115.79 283.53 139.16 283.53 139.16L282.2 94.4001L276.56 95.0201Z" fill="#323244"/>
<path d="M346.3 196.56C343.46 144.51 334.77 172.11 322.23 172.8C309.69 173.48 298.23 150.34 300.89 199.04C301.89 217.28 311.96 215.15 324.5 214.47C337.05 213.78 347.3 214.8 346.3 196.56Z" fill="#FFB692"/>
<path d="M300.54 183.81C301.16 155.83 311.28 173.4 322.23 172.8C334.37 172.14 342.9 146.23 346.01 191.85C326.96 199.25 311.51 192.71 300.54 183.81Z" fill="#D88D87"/>
<path d="M325.83 76.2702L305.63 77.3702C289.87 78.2302 277.67 91.8302 278.53 107.6L280.81 149.32C282.01 171.33 301 188.36 323.02 187.16C345.03 185.96 362.06 166.97 360.86 144.95L358.72 105.75C357.78 88.6002 342.98 75.3302 325.83 76.2702Z" fill="#FFB692"/>
<path d="M345.26 133.24C345.8 143.1 352.36 150.98 360.56 152.37C360.88 149.95 360.99 147.47 360.86 144.95L359.08 112.4C350.72 114.37 344.71 123.1 345.26 133.24Z" fill="#D88D87"/>
<path d="M358.57 104.03C356.78 87.7201 342.4 75.3601 325.83 76.2601L305.63 77.3601C298.87 77.7301 292.78 80.44 288.08 84.66C309.56 111.98 339.7 109.41 358.57 104.03Z" fill="#D88D87"/>
<path d="M334.71 118.23L327.95 116.05C325.86 115.38 324.7 113.11 325.37 111.02C326.04 108.93 328.31 107.77 330.4 108.44L337.16 110.62C339.25 111.29 340.41 113.56 339.74 115.65C339.06 117.75 336.8 118.91 334.71 118.23Z" fill="#323244"/>
<path d="M302.92 117.9L296.7 121.34C294.78 122.4 292.33 121.7 291.27 119.78C290.21 117.86 290.91 115.41 292.83 114.35L299.05 110.91C300.97 109.85 303.42 110.55 304.48 112.47C305.55 114.39 304.84 116.84 302.92 117.9Z" fill="#323244"/>
<path d="M308.47 146.84C308.47 146.84 319.02 148.18 319.17 150.14C319.32 152.1 314.29 153.31 312.85 152.54C311.4 151.77 308.47 146.84 308.47 146.84Z" fill="#D88D87"/>
<path d="M304.12 128.11C304.25 130.54 302.39 132.62 299.96 132.75C297.53 132.88 295.45 131.02 295.32 128.59C295.19 126.16 297.05 124.08 299.48 123.95C301.91 123.82 303.99 125.68 304.12 128.11Z" fill="#34344F"/>
<path d="M335.77 126.39C335.9 128.82 334.04 130.9 331.61 131.03C329.18 131.16 327.1 129.3 326.97 126.87C326.84 124.44 328.7 122.36 331.13 122.23C333.56 122.09 335.64 123.95 335.77 126.39Z" fill="#34344F"/>
<path d="M315.66 123.7C315.2 126.26 314.64 128.77 314.04 131.27C313.44 133.77 312.79 136.25 312.1 138.72C311.41 141.19 310.71 143.66 309.93 146.11L309.78 146.57C309.77 146.59 309.75 146.72 309.77 146.51C309.76 146.34 309.74 146.32 309.73 146.27C309.7 146.2 309.69 146.23 309.72 146.25C309.79 146.38 310.02 146.61 310.22 146.8C310.65 147.2 311.13 147.63 311.61 148.04C312.57 148.88 313.57 149.71 314.5 150.67C313.2 150.33 312 149.82 310.82 149.22C310.24 148.9 309.65 148.59 309.09 148.18C308.8 147.97 308.53 147.77 308.21 147.39C308.13 147.29 308.04 147.18 307.95 146.96C307.91 146.84 307.86 146.74 307.85 146.49C307.86 146.2 307.88 146.25 307.89 146.2L308.01 145.73C308.72 143.24 309.5 140.77 310.3 138.3C311.1 135.83 311.94 133.38 312.82 130.94C313.7 128.5 314.63 126.08 315.66 123.7Z" fill="#34344F"/>
<path d="M309.89 158.8C315.16 157.15 322.47 154.48 329.18 150.69C333.59 148.2 338.55 153.54 336.83 159.02C335.01 164.85 331.13 170.63 323.09 172.56C316.5 174.14 311.97 173.01 308.88 170.94C304.51 168 305.19 160.27 309.89 158.8Z" fill="#34344F"/>
<path d="M323.09 172.55C331.13 170.62 335.01 164.84 336.83 159.01C337.09 158.19 337.18 157.37 337.16 156.59C334.07 155.71 330.13 155.76 325.13 157.66C317.4 160.59 314.33 166.8 313.3 172.8C313.3 172.81 313.3 172.82 313.3 172.84C315.91 173.46 319.12 173.5 323.09 172.55Z" fill="#FF9292"/>
<path d="M318.21 166.47C319.22 167.73 322.26 167.05 325.02 164.95C327.77 162.85 329.19 160.14 328.19 158.88C327.18 157.62 324.14 158.3 321.38 160.4C318.62 162.5 317.2 165.22 318.21 166.47Z" fill="#FFABAB"/>
<path d="M309.89 158.8C315.16 157.15 322.47 154.48 329.18 150.69C331.89 149.16 334.8 150.59 336.25 153.18C332.63 157.53 326.7 161.49 319.45 163.94C314.8 165.51 310.21 166.26 306.06 166.27C305.57 163.14 306.93 159.72 309.89 158.8Z" fill="white"/>
<path d="M345.29 101.12C244.9 125.83 254.93 75.3001 254.93 75.3001L260.36 83.0601C260.36 83.0601 256.04 59.4301 278.18 50.8601L281.11 65.7001C281.11 65.7001 315.87 47.9201 349.99 69.0801C384.1 90.2401 366.6 140.76 366.6 140.76C366.6 140.76 351.92 141.42 345.29 101.12Z" fill="#323244"/>
<path d="M359.77 77.3701C357.14 74.3301 353.96 71.5501 350.11 69.1501C326.17 86.2801 289.94 103.21 260.04 79.0602C260.09 81.5101 260.37 83.0602 260.37 83.0602L254.94 75.3001C254.94 75.3001 254.39 78.0601 254.83 81.9801C288.19 111.87 333.1 98.4601 359.77 77.3701Z" fill="#49496B"/>
<path d="M353.54 127.92C352.73 135.5 356.19 142.19 361.26 142.86C366.33 143.54 371.09 137.95 371.9 130.37C372.71 122.79 369.25 116.1 364.18 115.43C359.11 114.75 354.34 120.34 353.54 127.92Z" fill="#FFB692"/>
<path d="M358.88 128.38C358.11 128.28 357.34 128.4 356.62 128.71C356.63 128.58 356.63 128.46 356.65 128.33C357.18 123.33 360.33 119.63 363.68 120.08C367.03 120.53 369.31 124.95 368.78 129.95C368.37 133.8 366.41 136.86 364.01 137.87C364.39 133.03 362.15 128.82 358.88 128.38Z" fill="#D88D87"/>
<path d="M380.07 131.5C380.63 141.68 374.5 150.3 366.39 150.74C358.28 151.18 351.25 143.29 350.69 133.1C350.13 122.92 356.26 114.3 364.37 113.86C372.49 113.42 379.52 121.31 380.07 131.5Z" fill="white"/>
<path d="M386.43 131.15C386.99 141.33 380.86 149.95 372.75 150.39C364.64 150.83 357.61 142.94 357.05 132.75C356.49 122.57 362.62 113.95 370.73 113.51C378.85 113.07 385.87 120.97 386.43 131.15Z" fill="#6D86AA"/>
<path d="M379.08 131.55C379.36 136.64 376.29 140.95 372.24 141.17C368.18 141.39 364.67 137.44 364.39 132.35C364.11 127.26 367.18 122.95 371.23 122.73C375.29 122.51 378.81 126.46 379.08 131.55Z" fill="#FFAC52"/>
<path d="M365.47 117.94C370.15 85.2201 351.01 65.4301 327.42 63.1901L334.63 62.3001C334.63 62.3001 378.06 62.14 374.76 118.57L365.47 117.94Z" fill="#6D86AA"/>
<path d="M271.62 149.46C270.8 175.28 297.21 173.13 297.21 173.13" stroke="#6D86AA" stroke-width="2" stroke-miterlimit="10"/>
<path d="M301.19 176.06L296.87 176.19C295.23 176.24 293.87 174.95 293.82 173.31C293.77 171.67 295.06 170.31 296.7 170.26L301.02 170.13C302.66 170.08 304.02 171.37 304.07 173.01C304.12 174.64 302.83 176.01 301.19 176.06Z" fill="white"/>
<path d="M468.28 0H396.07C386.44 0 378.64 7.8 378.64 17.43V53.53C378.64 62.74 385.78 70.26 394.82 70.9V90.47L414.32 70.97H468.27C477.9 70.97 485.7 63.17 485.7 53.54V17.44C485.71 7.81 477.91 0 468.28 0Z" fill="#FFC154"/>
<path d="M407.32 29.53C403.19 29.53 399.85 32.88 399.85 37C399.85 41.13 403.2 44.47 407.32 44.47C411.45 44.47 414.79 41.12 414.79 37C414.8 32.88 411.45 29.53 407.32 29.53Z" fill="white"/>
<path d="M432.18 29.53C428.05 29.53 424.71 32.88 424.71 37C424.71 41.13 428.06 44.47 432.18 44.47C436.31 44.47 439.65 41.12 439.65 37C439.65 32.88 436.3 29.53 432.18 29.53Z" fill="white"/>
<path d="M457.03 29.53C452.9 29.53 449.56 32.88 449.56 37C449.56 41.13 452.91 44.47 457.03 44.47C461.16 44.47 464.51 41.12 464.51 37C464.5 32.88 461.16 29.53 457.03 29.53Z" fill="white"/>
<path d="M535.51 388.24H13.65C6.11 388.24 0 382.13 0 374.59C0 367.05 6.11 360.94 13.65 360.94H535.51C543.05 360.94 549.16 367.05 549.16 374.59C549.16 382.13 543.05 388.24 535.51 388.24Z" fill="#BDD3F4"/>
<path d="M100.34 353.75L243.26 353.73L213.42 253.24H70.6399L100.34 353.75Z" fill="white"/>
<path d="M100.351 360.857H309.361V353.717H100.351V360.857Z" fill="#A0B8E8"/>
<path d="M100.347 360.857H243.257V353.717H100.347V360.857Z" fill="#EFF6FF"/>
<path d="M213.42 253.24H218.84L249.11 354.04L243.26 353.71L213.42 253.24Z" fill="#8BA6D1"/>
<path d="M142.27 312.37C144.61 319.55 151.49 323.75 157.64 321.75C163.79 319.75 166.88 312.3 164.54 305.12C162.2 297.94 155.32 293.74 149.17 295.74C143.02 297.74 139.93 305.19 142.27 312.37Z" fill="#A0B8E8"/>
<path d="M533.71 150.96H417.1C414.14 150.96 411.73 153.36 411.73 156.33V164.03L397.6 171.12L411.73 178.21V185.91C411.73 188.87 414.13 191.28 417.1 191.28H533.71C536.67 191.28 539.08 188.88 539.08 185.91V156.32C539.08 153.36 536.67 150.96 533.71 150.96Z" fill="#5295FE"/>
<path d="M428.5 177.57L423.15 179.47L423.31 173.8L419.85 169.3L425.29 167.7L428.5 163.02L431.7 167.7L437.14 169.3L433.68 173.8L433.84 179.47L428.5 177.57Z" fill="#FFC154"/>
<path d="M452.11 177.57L446.77 179.47L446.93 173.8L443.47 169.3L448.91 167.7L452.11 163.02L455.32 167.7L460.76 169.3L457.3 173.8L457.46 179.47L452.11 177.57Z" fill="#FFC154"/>
<path d="M475.73 177.57L470.39 179.47L470.55 173.8L467.09 169.3L472.53 167.7L475.73 163.02L478.94 167.7L484.38 169.3L480.92 173.8L481.08 179.47L475.73 177.57Z" fill="#FFC154"/>
<path d="M499.35 177.57L494.01 179.47L494.17 173.8L490.71 169.3L496.15 167.7L499.35 163.02L502.56 167.7L508 169.3L504.54 173.8L504.7 179.47L499.35 177.57Z" fill="#FFC154"/>
<path d="M522.64 177.57L517.3 179.47L517.46 173.8L514 169.3L519.44 167.7L522.64 163.02L525.85 167.7L531.29 169.3L527.83 173.8L527.99 179.47L522.64 177.57Z" fill="#FFC154"/>
</svg>
